<?xml version="1.0" encoding="UTF-8" standalone="no"?>
<!DOCTYPE svg PUBLIC "-//W3C//DTD SVG 1.1//EN" "http://www.w3.org/Graphics/SVG/1.1/DTD/svg11.dtd">
<svg width="100%" height="100%" viewBox="0 0 1162 349" version="1.1" xmlns="http://www.w3.org/2000/svg" xmlns:xlink="http://www.w3.org/1999/xlink" xml:space="preserve" xmlns:serif="http://www.serif.com/" style="fill-rule:evenodd;clip-rule:evenodd;stroke-linejoin:round;stroke-miterlimit:1.41421;">
    <g transform="matrix(1,0,0,1,-174.109,-174)">
        <g transform="matrix(1,0,0,1,172.1,169.9)">
            <g transform="matrix(1,0,0,1,0.122987,1.02352)">
                <path d="M264.27,177.09L347.58,93.78C348.933,92.428 349.694,90.592 349.694,88.68C349.694,86.768 348.933,84.932 347.58,83.58L269.37,5.36C268.018,4.007 266.182,3.246 264.27,3.246C262.358,3.246 260.522,4.007 259.17,5.36L175.86,88.67L175.68,88.49L92.37,5.19C91.018,3.837 89.182,3.076 87.27,3.076C85.358,3.076 83.522,3.837 82.17,5.19L4,83.4C2.647,84.752 1.886,86.588 1.886,88.5C1.886,90.412 2.647,92.248 4,93.6L87.49,177.09L4,260.57C2.647,261.922 1.886,263.758 1.886,265.67C1.886,267.582 2.647,269.418 4,270.77L82.17,349C83.522,350.353 85.358,351.114 87.27,351.114C89.182,351.114 91.018,350.353 92.37,349L151.3,290.07C151.3,290.07 153.2,253.9 110.77,200.42L259.17,348.82C260.522,350.173 262.358,350.934 264.27,350.934C266.182,350.934 268.018,350.173 269.37,348.82L347.58,270.61C348.933,269.258 349.694,267.422 349.694,265.51C349.694,263.598 348.933,261.762 347.58,260.41L264.27,177.09Z" style="fill:white;fill-rule:nonzero;"/>
            </g>
            <g transform="matrix(1,0,0,1,0.122987,1.02352)">
                <path d="M1085.76,177.09L1162.85,48.61C1163.42,47.659 1163.72,46.57 1163.72,45.46C1163.72,42.103 1160.96,39.34 1157.6,39.34L1061.68,39.34C1059.53,39.345 1057.53,40.487 1056.43,42.34L1030.66,85.28L1004.9,42.31C1003.8,40.457 1001.8,39.315 999.65,39.31L903.73,39.31C903.729,39.31 903.728,39.31 903.727,39.31C900.37,39.31 897.607,42.073 897.607,45.43C897.607,46.54 897.909,47.629 898.48,48.58L975.57,177.06L907.37,290.74L875.7,225.37C890.231,217.664 902.267,205.971 910.39,191.67C918.53,177.35 922.603,159.94 922.61,139.44C922.61,106.86 912.61,82.03 892.61,64.95C872.61,47.87 845.557,39.33 811.45,39.33L685.6,39.33C685.593,39.33 685.587,39.33 685.58,39.33C681.97,39.33 679,42.3 679,45.91L679,94.29C674.164,82.997 666.785,72.973 657.44,65C637.44,47.92 610.377,39.38 576.25,39.38L450.39,39.38C446.78,39.38 443.81,42.35 443.81,45.96L443.81,308.26C443.81,311.87 446.78,314.84 450.39,314.84L530.64,314.84C534.25,314.84 537.22,311.87 537.22,308.26L537.22,239.56L576.22,239.56C610.373,239.56 637.437,231.02 657.41,213.94C666.772,205.96 674.162,195.921 679,184.61L679,308.26C679,311.87 681.97,314.84 685.58,314.84L764.25,314.84C767.86,314.84 770.83,311.87 770.83,308.26L770.83,239.56L788.57,239.56L822.47,309.93C823.915,312.927 826.962,314.841 830.29,314.84L999.65,314.84C1001.8,314.835 1003.8,313.693 1004.9,311.84L1030.67,268.9L1056.44,311.84C1057.54,313.693 1059.54,314.835 1061.69,314.84L1157.61,314.84C1160.97,314.84 1163.73,312.077 1163.73,308.72C1163.73,307.61 1163.43,306.521 1162.86,305.57L1085.76,177.09ZM557.32,169.8L537.22,169.8L537.22,109.1L557.32,109.1C581.227,109.1 593.183,119.217 593.19,139.45C593.197,159.683 581.24,169.8 557.32,169.8ZM791.74,169.8L770.85,169.8L770.85,109.1L791.74,109.1C815.647,109.1 827.603,119.217 827.61,139.45C827.617,159.683 815.663,169.8 791.75,169.8L791.74,169.8Z" style="fill:white;fill-rule:nonzero;"/>
            </g>
        </g>
    </g>
</svg>
