<svg viewBox="0 0 128 14" fill="none" xmlns="http://www.w3.org/2000/svg">
<path d="M42.0897 7.05164L45.0314 1.92029C45.0963 1.80448 45.062 1.65274 44.9513 1.58485C44.9132 1.56089 44.875 1.54892 44.8292 1.54892H41.1702C41.0862 1.54892 41.0099 1.59284 40.9718 1.66871L39.9874 3.38183L39.003 1.66472C38.961 1.58885 38.8847 1.54492 38.8046 1.54492H35.1455C35.0158 1.54492 34.9128 1.65274 34.9128 1.78851C34.9128 1.83244 34.9242 1.87636 34.9471 1.9163L37.8888 7.04765L35.2867 11.588L34.0772 8.9764C34.6304 8.66891 35.0921 8.2017 35.4011 7.63066C35.7102 7.05963 35.8666 6.3648 35.8666 5.54618C35.8666 4.24437 35.4851 3.25404 34.722 2.57119C33.9589 1.88834 32.9287 1.54892 31.6276 1.54892H26.8201C26.6827 1.54892 26.5683 1.66472 26.5683 1.81247V3.74521C26.3851 3.29397 26.1028 2.89465 25.7479 2.57519C24.9848 1.89234 23.9508 1.55291 22.6498 1.55291H17.8461C17.7087 1.55291 17.5942 1.66871 17.5942 1.81646V12.2908C17.5942 12.4346 17.7049 12.5544 17.8461 12.5544H20.9099C21.0473 12.5544 21.1617 12.4386 21.1617 12.2908V9.54743H22.6498C23.9547 9.54743 24.9848 9.208 25.7479 8.52516C26.1066 8.20569 26.3851 7.80637 26.5721 7.35513V12.2908C26.5721 12.4346 26.6827 12.5544 26.8239 12.5544H29.8267C29.9641 12.5544 30.0785 12.4386 30.0785 12.2908V9.54743H30.7539L32.0473 12.3587C32.1007 12.4785 32.219 12.5544 32.3449 12.5544H38.8046C38.8885 12.5544 38.9648 12.5104 39.003 12.4346L39.9874 10.7215L40.9718 12.4346C41.0137 12.5104 41.09 12.5544 41.1702 12.5544H44.8292C44.9589 12.5544 45.062 12.4465 45.062 12.3108C45.062 12.2668 45.0505 12.2229 45.0276 12.183L42.0897 7.05164ZM21.9286 6.76013H21.1617V4.33622H21.9286C22.8405 4.33622 23.2984 4.73954 23.2984 5.55017C23.2946 6.35681 22.8405 6.76013 21.9286 6.76013ZM30.8721 6.76013H30.0747V4.33622H30.8721C31.7841 4.33622 32.2419 4.73954 32.2419 5.55017C32.2419 6.3608 31.7841 6.76013 30.8721 6.76013Z" fill="currentColor"/>
<path d="M10.8137 7.00815L14.0003 3.67309C14.052 3.61899 14.0811 3.54546 14.0811 3.46891C14.0811 3.39236 14.052 3.31884 14.0003 3.26473L11.0088 0.133852C10.9571 0.0796805 10.8868 0.0492197 10.8137 0.0492197C10.7405 0.0492197 10.6703 0.0796805 10.6186 0.133852L7.43199 3.46891L7.425 3.4616L4.23842 0.126868C4.18672 0.0726971 4.11647 0.0422363 4.04333 0.0422363C3.97019 0.0422363 3.89993 0.0726971 3.84824 0.126868L0.856743 3.25775C0.804984 3.31185 0.775879 3.38538 0.775879 3.46193C0.775879 3.53848 0.804984 3.612 0.856743 3.66611L4.05 7.00815L0.856743 10.3502C0.804984 10.4043 0.775879 10.4778 0.775879 10.5544C0.775879 10.6309 0.804984 10.7045 0.856743 10.7586L3.84824 13.8888C3.89993 13.9429 3.97019 13.9734 4.04333 13.9734C4.11647 13.9734 4.18672 13.9429 4.23842 13.8888L6.49245 11.5297C6.49245 11.5297 6.56521 10.0825 4.94157 7.9416L7.43136 10.5471L10.6186 13.8825C10.6703 13.9366 10.7405 13.9671 10.8137 13.9671C10.8868 13.9671 10.9571 13.9366 11.0088 13.8825L14.0003 10.7516C14.052 10.6975 14.0811 10.6239 14.0811 10.5474C14.0811 10.4708 14.052 10.3973 14.0003 10.3432L10.8137 7.00815Z" fill="currentColor"/>
<path d="M47.8618 1.59996H52.7233C53.8852 1.59996 54.9094 1.83463 55.7961 2.30396C56.693 2.76263 57.3861 3.41329 57.8753 4.25596C58.3747 5.09863 58.6244 6.07996 58.6244 7.19996C58.6244 8.31996 58.3747 9.30129 57.8753 10.144C57.3861 10.9866 56.693 11.6426 55.7961 12.112C54.9094 12.5706 53.8852 12.8 52.7233 12.8H47.8618V1.59996ZM52.601 10.672C53.6711 10.672 54.5222 10.3626 55.154 9.74396C55.7961 9.11463 56.1172 8.26663 56.1172 7.19996C56.1172 6.13329 55.7961 5.29063 55.154 4.67196C54.5222 4.04263 53.6711 3.72796 52.601 3.72796H50.3384V10.672H52.601Z" fill="currentColor"/>
<path d="M65.6746 12.992C64.5637 12.992 63.5598 12.7413 62.6629 12.24C61.7762 11.7386 61.0781 11.0506 60.5685 10.176C60.0691 9.29063 59.8194 8.29863 59.8194 7.19996C59.8194 6.10129 60.0691 5.11463 60.5685 4.23996C61.0781 3.35463 61.7762 2.66129 62.6629 2.15996C63.5598 1.65863 64.5637 1.40796 65.6746 1.40796C66.7855 1.40796 67.7843 1.65863 68.671 2.15996C69.5577 2.66129 70.2558 3.35463 70.7654 4.23996C71.275 5.11463 71.5298 6.10129 71.5298 7.19996C71.5298 8.29863 71.275 9.29063 70.7654 10.176C70.2558 11.0506 69.5577 11.7386 68.671 12.24C67.7843 12.7413 66.7855 12.992 65.6746 12.992ZM65.6746 10.784C66.3065 10.784 66.8772 10.6346 67.3868 10.336C67.8964 10.0266 68.2939 9.59996 68.5793 9.05596C68.8748 8.51196 69.0226 7.89329 69.0226 7.19996C69.0226 6.50663 68.8748 5.88796 68.5793 5.34396C68.2939 4.79996 67.8964 4.37863 67.3868 4.07996C66.8772 3.77063 66.3065 3.61596 65.6746 3.61596C65.0427 3.61596 64.472 3.77063 63.9624 4.07996C63.4528 4.37863 63.0502 4.79996 62.7547 5.34396C62.4693 5.88796 62.3266 6.50663 62.3266 7.19996C62.3266 7.89329 62.4693 8.51196 62.7547 9.05596C63.0502 9.59996 63.4528 10.0266 63.9624 10.336C64.472 10.6346 65.0427 10.784 65.6746 10.784Z" fill="currentColor"/>
<path d="M83.3214 1.59996L78.6892 12.8H76.2432L71.6263 1.59996H74.3016L77.5579 9.59996L80.8601 1.59996H83.3214Z" fill="currentColor"/>
<path d="M92.5008 10.72V12.8H84.2149V1.59996H92.3021V3.67996H86.6762V6.11196H91.6447V8.12796H86.6762V10.72H92.5008Z" fill="currentColor"/>
<path d="M96.6881 3.71196H93.2636V1.59996H102.589V3.71196H99.1647V12.8H96.6881V3.71196Z" fill="currentColor"/>
<path d="M110.432 10.4H105.463L104.515 12.8H101.978L106.748 1.59996H109.194L113.979 12.8H111.38L110.432 10.4ZM109.652 8.43196L107.955 4.14396L106.258 8.43196H109.652Z" fill="currentColor"/>
<path d="M115.089 1.59996H117.565V12.8H115.089V1.59996Z" fill="currentColor"/>
<path d="M120.105 1.59996H122.582V10.688H127.948V12.8H120.105V1.59996Z" fill="currentColor"/>
</svg>
