<?xml version="1.0" encoding="utf-8"?>
<!-- Generator: Adobe Illustrator 26.3.1, SVG Export Plug-In . SVG Version: 6.00 Build 0)  -->
<svg version="1.1" id="Layer_1" xmlns:serif="http://www.serif.com/"
	 xmlns="http://www.w3.org/2000/svg" xmlns:xlink="http://www.w3.org/1999/xlink" x="0px" y="0px" viewBox="0 0 1000 300"
	 style="enable-background:new 0 0 1000 300;" xml:space="preserve">
<g transform="matrix(1,0,0,1,-174.109,-174)">
	<g transform="matrix(1,0,0,1,172.1,169.9)">
		<g transform="matrix(1,0,0,1,0.122987,1.02352)">
			<path d="M228.3,153.1l71.6-71.6c1.2-1.2,1.8-2.7,1.8-4.4s-0.7-3.2-1.8-4.4L232.6,5.6c-1.2-1.2-2.7-1.8-4.4-1.8
				c-1.6,0-3.2,0.7-4.4,1.8l-71.6,71.6l-0.2-0.2L80.6,5.4c-1.2-1.2-2.7-1.8-4.4-1.8S73,4.3,71.8,5.4L4.7,72.6
				c-1.2,1.2-1.8,2.7-1.8,4.4s0.7,3.2,1.8,4.4l71.7,71.7L4.7,224.8c-1.2,1.2-1.8,2.7-1.8,4.4c0,1.6,0.7,3.2,1.8,4.4l67.1,67.2
				c1.2,1.2,2.7,1.8,4.4,1.8s3.2-0.7,4.4-1.8l50.6-50.6c0,0,1.6-31.1-34.8-77l127.5,127.5c1.2,1.2,2.7,1.8,4.4,1.8
				c1.6,0,3.2-0.7,4.4-1.8l67.2-67.2c1.2-1.2,1.8-2.7,1.8-4.4c0-1.6-0.7-3.2-1.8-4.4L228.3,153.1z"/>
		</g>
		<g transform="matrix(1,0,0,1,0.122987,1.02352)">
			<path d="M933.9,153.1l66.2-110.4c0.5-0.8,0.7-1.8,0.7-2.7c0-2.9-2.4-5.3-5.3-5.3h-82.4c-1.8,0-3.6,1-4.5,2.6l-22.1,36.9
				l-22.1-36.9c-0.9-1.6-2.7-2.6-4.5-2.6h-82.4c0,0,0,0,0,0c-2.9,0-5.3,2.4-5.3,5.3c0,1,0.3,1.9,0.7,2.7L839.3,153l-58.6,97.6
				l-27.2-56.2c12.5-6.6,22.8-16.7,29.8-28.9c7-12.3,10.5-27.3,10.5-44.9c0-28-8.6-49.3-25.8-64c-17.2-14.7-40.4-22-69.7-22H590.2
				c0,0,0,0,0,0c-3.1,0-5.7,2.6-5.7,5.7v41.6c-4.2-9.7-10.5-18.3-18.5-25.2c-17.2-14.7-40.4-22-69.7-22H388.1
				c-3.1,0-5.7,2.6-5.7,5.7v225.3c0,3.1,2.6,5.7,5.7,5.7h68.9c3.1,0,5.7-2.6,5.7-5.7v-59h33.5c29.3,0,52.6-7.3,69.7-22
				c8-6.9,14.4-15.5,18.5-25.2v106.2c0,3.1,2.6,5.7,5.7,5.7h67.6c3.1,0,5.7-2.6,5.7-5.7v-59h15.2l29.1,60.4c1.2,2.6,3.9,4.2,6.7,4.2
				h145.5c1.8,0,3.6-1,4.5-2.6l22.1-36.9l22.1,36.9c0.9,1.6,2.7,2.6,4.5,2.6h82.4c2.9,0,5.3-2.4,5.3-5.3c0-1-0.3-1.9-0.7-2.7
				L933.9,153.1z M480,146.8h-17.3V94.7H480c20.5,0,30.8,8.7,30.8,26.1C510.8,138.1,500.5,146.8,480,146.8z M681.4,146.8h-17.9V94.7
				h17.9c20.5,0,30.8,8.7,30.8,26.1C712.2,138.1,701.9,146.8,681.4,146.8L681.4,146.8z"/>
		</g>
	</g>
</g>
</svg>
