<?xml version="1.0" encoding="utf-8"?>
<!-- Generator: Adobe Illustrator 26.3.1, SVG Export Plug-In . SVG Version: 6.00 Build 0)  -->
<svg version="1.1" id="Layer_1" xmlns:serif="http://www.serif.com/"
	 xmlns="http://www.w3.org/2000/svg" xmlns:xlink="http://www.w3.org/1999/xlink" x="0px" y="0px" viewBox="0 0 1000 300"
	 style="enable-background:new 0 0 1000 300;" xml:space="preserve">
<style type="text/css">
	.st0{fill:#FF9600;}
	.st1{fill:#0089BD;}
	.st2{fill:#BF7000;}
</style>
<g transform="matrix(1,0,0,1,172.1,169.9)">
	<path class="st0" d="M54.1-20.1L-21.8-96l-71.5-71.5c-2.4-2.4-6.4-2.4-8.8,0l-67.2,67.2c-2.4,2.4-2.4,6.4,0,8.8l71.7,71.7l-0.2,0.2
		l-71.5,71.5c-2.4,2.4-2.4,6.4,0,8.8l67.2,67.2c2.4,2.4,6.4,2.4,8.8,0l71.5-71.5l75.9-75.9l-0.2-0.2L54.1-20.1z"/>
	<path class="st1" d="M-21.7,56l-75.9-75.9l75.9-75.9l71.5-71.5c2.4-2.4,6.4-2.4,8.8,0l67.2,67.2c2.4,2.4,2.4,6.4,0,8.8L54.3-19.9
		l71.5,71.5c2.4,2.4,2.4,6.4,0,8.8l-67.2,67.2c-2.4,2.4-6.4,2.4-8.8,0L-21.7,56z"/>
	<path class="st2" d="M-97.7-19.9L-21.7,56l-21.1,21.1C-42.8,77.2-41.8,37.5-97.7-19.9z"/>
	<path class="st1" d="M759.9-19.9l66.2-110.4c1.5-2.5,0.7-5.8-1.8-7.2c-0.9-0.5-1.7-0.8-2.7-0.8h-82.4c-1.9,0-3.6,0.9-4.5,2.6
		l-22.2,36.8l-22.2-36.9c-0.9-1.6-2.7-2.6-4.5-2.6h-82.4c-2.9,0-5.2,2.3-5.2,5.2c0,0.9,0.3,1.9,0.8,2.7L665.4-20l-58.6,97.7
		l-27.2-56.2c12.5-6.6,22.8-16.7,29.8-28.9c7-12.3,10.5-27.2,10.5-44.8c0-28-8.6-49.3-25.8-64s-40.4-22-69.7-22H416.2
		c-3.1,0-5.7,2.5-5.7,5.7V-91c-4.1-9.7-10.5-18.3-18.5-25.2c-17.2-14.7-40.5-22-69.7-22H214.2c-3.1,0-5.7,2.5-5.7,5.7V92.8
		c0,3.1,2.5,5.7,5.7,5.7h69c3.1,0,5.7-2.5,5.7-5.7v-59h33.5c29.4,0,52.6-7.3,69.7-22c8.1-6.9,14.3-15.5,18.6-25.2V92.8
		c0,3.1,2.5,5.7,5.7,5.7h67.6c3.1,0,5.7-2.5,5.7-5.7v-59h15.2l29.1,60.5c1.2,2.6,3.9,4.2,6.7,4.2H686c1.9,0,3.6-0.9,4.5-2.6
		L712.6,59l22.2,36.8c0.9,1.6,2.7,2.6,4.5,2.6h82.4c2.9,0,5.2-2.3,5.2-5.2c0-0.9-0.3-1.9-0.8-2.7L759.9-19.9z M306.1-26.2h-17.3
		v-52.1h17.3c20.5,0,30.8,8.7,30.8,26.1C336.9-34.8,326.6-26.2,306.1-26.2z M507.4-26.2h-18v-52.1h18c20.5,0,30.8,8.7,30.8,26.1
		S528-26.2,507.4-26.2z"/>
</g>
</svg>
