<svg viewBox="0 0 82 35" fill="none" xmlns="http://www.w3.org/2000/svg">
<g clip-path="url(#clip0_964_5186)">
<path d="M66.0214 7.7219C68.1085 7.7219 69.8005 6.11676 69.8005 4.13671C69.8005 2.15666 68.1085 0.551514 66.0214 0.551514C63.9344 0.551514 62.2424 2.15666 62.2424 4.13671C62.2424 6.11676 63.9344 7.7219 66.0214 7.7219Z" fill="white"/>
<path d="M63.1489 12.6658V33.0895C63.1489 34.194 64.6366 34.4828 66.1243 34.4828C67.6119 34.4828 69.0996 34.194 69.0996 33.0895V12.6658C69.0996 11.1875 67.6119 10.9836 66.1243 10.9836C64.6537 10.9836 63.1489 11.1875 63.1489 12.6658Z" fill="white"/>
<path d="M75.6492 2.18215V33.0896C75.6492 34.194 77.1368 34.4829 78.6245 34.4829C80.1122 34.4829 81.5998 34.194 81.5998 33.0896V2.18215C81.5998 0.703897 80.1122 0.5 78.6245 0.5C77.1539 0.5 75.6492 0.703897 75.6492 2.18215Z" fill="white"/>
<path d="M32.9153 22.351C32.9153 15.9283 38.0794 10.2021 45.5348 10.2021C52.956 10.2021 58.2398 15.8263 58.2398 22.317C58.2398 29.3005 52.3746 34.4999 45.6032 34.4999C38.0965 34.4829 32.9153 28.7568 32.9153 22.351ZM45.5177 29.5384C49.4848 29.5384 52.4601 26.293 52.4601 22.3001C52.4601 18.3071 49.4848 15.1467 45.5177 15.1467C41.5506 15.1467 38.6266 18.358 38.6266 22.351C38.6266 26.344 41.5506 29.5384 45.5177 29.5384Z" fill="white"/>
<path d="M29.4968 28.2255C29.4968 31.3349 22.1953 34.4783 17.1167 34.4783C10.8925 34.4783 5.06148 31.165 2.08615 25.8297C0.683985 23.3489 0 20.5283 0 17.7078C0 14.4284 0.940479 11.1491 2.78724 8.34548C4.2578 6.10261 7.04504 3.11212 11.9526 1.51492C13.1838 1.10713 15.4067 0.529419 17.9033 0.529419C24.9141 0.529419 29.3258 5.40596 29.3258 9.67081C29.3258 12.5933 26.9319 16.7562 21.0667 16.7562C18.3821 16.7562 17.4758 15.6348 17.4758 14.3435C17.4758 12.6103 19.1003 10.5884 20.2801 10.5884C20.776 10.5884 21.0838 11.0811 22.0414 10.9452C22.9819 10.8092 23.4778 10.1806 23.4778 9.39895C23.4778 7.9207 21.7165 5.94969 17.9717 5.94969C16.7747 5.94969 15.3726 6.15359 13.7481 6.64634C10.4137 7.64883 8.584 10.0276 7.60933 11.5059C6.37815 13.375 5.76257 15.5668 5.76257 17.7248C5.76257 19.5768 6.22426 21.4289 7.13054 23.0601C9.09699 26.5603 12.9615 28.7522 17.1167 28.7522C22.8451 28.7522 24.4524 25.6937 25.6152 25.201C27.6672 24.3004 29.4968 26.7642 29.4968 28.2255Z" fill="white"/>
</g>
<defs>
<clipPath id="clip0_964_5186">
<rect width="82" height="34" fill="currentColor" transform="translate(0 0.5)"/>
</clipPath>
</defs>
</svg>
