<svg width="100%" height="100%" viewBox="0 0 51 50" fill="none" xmlns="http://www.w3.org/2000/svg">
<g opacity="0.9">
<path d="M18.1227 22.5C16.7477 22.5 15.6227 23.625 15.6227 25C15.6227 26.375 16.7477 27.5 18.1227 27.5C19.4977 27.5 20.6227 26.375 20.6227 25C20.6227 23.625 19.4977 22.5 18.1227 22.5ZM33.1227 22.5C31.7477 22.5 30.6227 23.625 30.6227 25C30.6227 26.375 31.7477 27.5 33.1227 27.5C34.4977 27.5 35.6227 26.375 35.6227 25C35.6227 23.625 34.4977 22.5 33.1227 22.5ZM25.6227 22.5C24.2477 22.5 23.1227 23.625 23.1227 25C23.1227 26.375 24.2477 27.5 25.6227 27.5C26.9977 27.5 28.1227 26.375 28.1227 25C28.1227 23.625 26.9977 22.5 25.6227 22.5Z" fill="currentColor"/>
</g>
</svg>
