<svg  viewBox="0 0 40 40" fill="none" xmlns="http://www.w3.org/2000/svg">
<path d="M25.0002 26.6667H21.6668V13.3334H25.0002M18.3335 26.6667H15.0002V13.3334H18.3335M20.0002 3.33337C17.8115 3.33337 15.6442 3.76447 13.6221 4.60205C11.6 5.43963 9.76269 6.66728 8.21505 8.21493C5.08944 11.3405 3.3335 15.5798 3.3335 20C3.3335 24.4203 5.08944 28.6595 8.21505 31.7852C9.76269 33.3328 11.6 34.5605 13.6221 35.398C15.6442 36.2356 17.8115 36.6667 20.0002 36.6667C24.4204 36.6667 28.6597 34.9108 31.7853 31.7852C34.9109 28.6595 36.6668 24.4203 36.6668 20C36.6668 17.8113 36.2357 15.6441 35.3982 13.622C34.5606 11.5999 33.3329 9.76257 31.7853 8.21493C30.2376 6.66728 28.4003 5.43963 26.3782 4.60205C24.3561 3.76447 22.1889 3.33337 20.0002 3.33337V3.33337Z" fill="currentColor"/>
</svg>
